0
SECTION
2
HEADER
9
$INSUNITS
70
1
0
ENDSEC
0
SECTION
2
TABLES
0
TABLE
2
LAYER
0
ENDTAB
0
ENDSEC
0
SECTION
2
ENTITIES
0
LINE
8
front_outsideCutPath
10
0
20
119
11
0
21
97.5625
0
LINE
8
front_outsideCutPath
10
0
20
97.5625
11
3
21
97.5625
0
LINE
8
front_outsideCutPath
10
3
20
97.5625
11
3
21
82.9375
0
LINE
8
front_outsideCutPath
10
3
20
82.9375
11
0
21
82.9375
0
LINE
8
front_outsideCutPath
10
0
20
82.9375
11
0
21
68.3125
0
LINE
8
front_outsideCutPath
10
0
20
68.3125
11
3
21
68.3125
0
LINE
8
front_outsideCutPath
10
3
20
68.3125
11
3
21
53.6875
0
LINE
8
front_outsideCutPath
10
3
20
53.6875
11
0
21
53.6875
0
LINE
8
front_outsideCutPath
10
0
20
53.6875
11
0
21
39.0625
0
LINE
8
front_outsideCutPath
10
0
20
39.0625
11
3
21
39.0625
0
LINE
8
front_outsideCutPath
10
3
20
39.0625
11
3
21
24.4375
0
LINE
8
front_outsideCutPath
10
3
20
24.4375
11
0
21
24.4375
0
LINE
8
front_outsideCutPath
10
0
20
24.4375
11
0
21
9.8125
0
LINE
8
front_outsideCutPath
10
0
20
9.8125
11
0
21
3
0
LINE
8
front_outsideCutPath
10
0
20
3
11
16.0625
21
3
0
LINE
8
front_outsideCutPath
10
16.0625
20
3
11
16.0625
21
6
0
LINE
8
front_outsideCutPath
10
16.0625
20
6
11
30.6875
21
6
0
LINE
8
front_outsideCutPath
10
30.6875
20
6
11
30.6875
21
3
0
LINE
8
front_outsideCutPath
10
30.6875
20
3
11
45.3125
21
3
0
LINE
8
front_outsideCutPath
10
45.3125
20
3
11
45.3125
21
6
0
LINE
8
front_outsideCutPath
10
45.3125
20
6
11
59.9375
21
6
0
LINE
8
front_outsideCutPath
10
59.9375
20
6
11
59.9375
21
3
0
LINE
8
front_outsideCutPath
10
59.9375
20
3
11
76
21
3
0
LINE
8
front_outsideCutPath
10
76
20
3
11
76
21
24.4375
0
LINE
8
front_outsideCutPath
10
76
20
24.4375
11
73
21
24.4375
0
LINE
8
front_outsideCutPath
10
73
20
24.4375
11
73
21
39.0625
0
LINE
8
front_outsideCutPath
10
73
20
39.0625
11
76
21
39.0625
0
LINE
8
front_outsideCutPath
10
76
20
39.0625
11
76
21
53.6875
0
LINE
8
front_outsideCutPath
10
76
20
53.6875
11
73
21
53.6875
0
LINE
8
front_outsideCutPath
10
73
20
53.6875
11
73
21
68.3125
0
LINE
8
front_outsideCutPath
10
73
20
68.3125
11
76
21
68.3125
0
LINE
8
front_outsideCutPath
10
76
20
68.3125
11
76
21
82.9375
0
LINE
8
front_outsideCutPath
10
76
20
82.9375
11
73
21
82.9375
0
LINE
8
front_outsideCutPath
10
73
20
82.9375
11
73
21
97.5625
0
LINE
8
front_outsideCutPath
10
73
20
97.5625
11
76
21
97.5625
0
LINE
8
front_outsideCutPath
10
76
20
97.5625
11
76
21
112.1875
0
LINE
8
front_outsideCutPath
10
76
20
112.1875
11
76
21
119
0
LINE
8
front_outsideCutPath
10
76
20
119
11
59.9375
21
119
0
LINE
8
front_outsideCutPath
10
59.9375
20
119
11
59.9375
21
116
0
LINE
8
front_outsideCutPath
10
59.9375
20
116
11
45.3125
21
116
0
LINE
8
front_outsideCutPath
10
45.3125
20
116
11
45.3125
21
119
0
LINE
8
front_outsideCutPath
10
45.3125
20
119
11
30.6875
21
119
0
LINE
8
front_outsideCutPath
10
30.6875
20
119
11
30.6875
21
116
0
LINE
8
front_outsideCutPath
10
30.6875
20
116
11
16.0625
21
116
0
LINE
8
front_outsideCutPath
10
16.0625
20
116
11
16.0625
21
119
0
LINE
8
front_outsideCutPath
10
16.0625
20
119
11
0
21
119
0
LINE
8
left_outsideCutPath
10
82
20
119
11
82
21
97.5625
0
LINE
8
left_outsideCutPath
10
82
20
97.5625
11
79
21
97.5625
0
LINE
8
left_outsideCutPath
10
79
20
97.5625
11
79
21
82.9375
0
LINE
8
left_outsideCutPath
10
79
20
82.9375
11
82
21
82.9375
0
LINE
8
left_outsideCutPath
10
82
20
82.9375
11
82
21
68.3125
0
LINE
8
left_outsideCutPath
10
82
20
68.3125
11
79
21
68.3125
0
LINE
8
left_outsideCutPath
10
79
20
68.3125
11
79
21
53.6875
0
LINE
8
left_outsideCutPath
10
79
20
53.6875
11
82
21
53.6875
0
LINE
8
left_outsideCutPath
10
82
20
53.6875
11
82
21
39.0625
0
LINE
8
left_outsideCutPath
10
82
20
39.0625
11
79
21
39.0625
0
LINE
8
left_outsideCutPath
10
79
20
39.0625
11
79
21
24.4375
0
LINE
8
left_outsideCutPath
10
79
20
24.4375
11
82
21
24.4375
0
LINE
8
left_outsideCutPath
10
82
20
24.4375
11
82
21
9.8125
0
LINE
8
left_outsideCutPath
10
82
20
9.8125
11
82
21
3
0
LINE
8
left_outsideCutPath
10
82
20
3
11
89.6875
21
3
0
LINE
8
left_outsideCutPath
10
89.6875
20
3
11
89.6875
21
6
0
LINE
8
left_outsideCutPath
10
89.6875
20
6
11
104.3125
21
6
0
LINE
8
left_outsideCutPath
10
104.3125
20
6
11
104.3125
21
3
0
LINE
8
left_outsideCutPath
10
104.3125
20
3
11
112
21
3
0
LINE
8
left_outsideCutPath
10
112
20
3
11
112
21
24.4375
0
LINE
8
left_outsideCutPath
10
112
20
24.4375
11
115
21
24.4375
0
LINE
8
left_outsideCutPath
10
115
20
24.4375
11
115
21
39.0625
0
LINE
8
left_outsideCutPath
10
115
20
39.0625
11
112
21
39.0625
0
LINE
8
left_outsideCutPath
10
112
20
39.0625
11
112
21
53.6875
0
LINE
8
left_outsideCutPath
10
112
20
53.6875
11
115
21
53.6875
0
LINE
8
left_outsideCutPath
10
115
20
53.6875
11
115
21
68.3125
0
LINE
8
left_outsideCutPath
10
115
20
68.3125
11
112
21
68.3125
0
LINE
8
left_outsideCutPath
10
112
20
68.3125
11
112
21
82.9375
0
LINE
8
left_outsideCutPath
10
112
20
82.9375
11
115
21
82.9375
0
LINE
8
left_outsideCutPath
10
115
20
82.9375
11
115
21
97.5625
0
LINE
8
left_outsideCutPath
10
115
20
97.5625
11
112
21
97.5625
0
LINE
8
left_outsideCutPath
10
112
20
97.5625
11
112
21
112.1875
0
LINE
8
left_outsideCutPath
10
112
20
112.1875
11
112
21
119
0
LINE
8
left_outsideCutPath
10
112
20
119
11
104.3125
21
119
0
LINE
8
left_outsideCutPath
10
104.3125
20
119
11
104.3125
21
116
0
LINE
8
left_outsideCutPath
10
104.3125
20
116
11
89.6875
21
116
0
LINE
8
left_outsideCutPath
10
89.6875
20
116
11
89.6875
21
119
0
LINE
8
left_outsideCutPath
10
89.6875
20
119
11
82
21
119
0
LINE
8
top_outsideCutPath
10
121
20
36
11
121
21
28.3125
0
LINE
8
top_outsideCutPath
10
121
20
28.3125
11
118
21
28.3125
0
LINE
8
top_outsideCutPath
10
118
20
28.3125
11
118
21
13.6875
0
LINE
8
top_outsideCutPath
10
118
20
13.6875
11
121
21
13.6875
0
LINE
8
top_outsideCutPath
10
121
20
13.6875
11
121
21
6
0
LINE
8
top_outsideCutPath
10
121
20
6
11
134.0625
21
6
0
LINE
8
top_outsideCutPath
10
134.0625
20
6
11
134.0625
21
3
0
LINE
8
top_outsideCutPath
10
134.0625
20
3
11
148.6875
21
3
0
LINE
8
top_outsideCutPath
10
148.6875
20
3
11
148.6875
21
6
0
LINE
8
top_outsideCutPath
10
148.6875
20
6
11
163.3125
21
6
0
LINE
8
top_outsideCutPath
10
163.3125
20
6
11
163.3125
21
3
0
LINE
8
top_outsideCutPath
10
163.3125
20
3
11
177.9375
21
3
0
LINE
8
top_outsideCutPath
10
177.9375
20
3
11
177.9375
21
6
0
LINE
8
top_outsideCutPath
10
177.9375
20
6
11
191
21
6
0
LINE
8
top_outsideCutPath
10
191
20
6
11
191
21
13.6875
0
LINE
8
top_outsideCutPath
10
191
20
13.6875
11
194
21
13.6875
0
LINE
8
top_outsideCutPath
10
194
20
13.6875
11
194
21
28.3125
0
LINE
8
top_outsideCutPath
10
194
20
28.3125
11
191
21
28.3125
0
LINE
8
top_outsideCutPath
10
191
20
28.3125
11
191
21
36
0
LINE
8
top_outsideCutPath
10
191
20
36
11
177.9375
21
36
0
LINE
8
top_outsideCutPath
10
177.9375
20
36
11
177.9375
21
39
0
LINE
8
top_outsideCutPath
10
177.9375
20
39
11
163.3125
21
39
0
LINE
8
top_outsideCutPath
10
163.3125
20
39
11
163.3125
21
36
0
LINE
8
top_outsideCutPath
10
163.3125
20
36
11
148.6875
21
36
0
LINE
8
top_outsideCutPath
10
148.6875
20
36
11
148.6875
21
39
0
LINE
8
top_outsideCutPath
10
148.6875
20
39
11
134.0625
21
39
0
LINE
8
top_outsideCutPath
10
134.0625
20
39
11
134.0625
21
36
0
LINE
8
top_outsideCutPath
10
134.0625
20
36
11
121
21
36
0
LINE
8
back_outsideCutPath
10
0
20
238
11
0
21
216.5625
0
LINE
8
back_outsideCutPath
10
0
20
216.5625
11
3
21
216.5625
0
LINE
8
back_outsideCutPath
10
3
20
216.5625
11
3
21
201.9375
0
LINE
8
back_outsideCutPath
10
3
20
201.9375
11
0
21
201.9375
0
LINE
8
back_outsideCutPath
10
0
20
201.9375
11
0
21
187.3125
0
LINE
8
back_outsideCutPath
10
0
20
187.3125
11
3
21
187.3125
0
LINE
8
back_outsideCutPath
10
3
20
187.3125
11
3
21
172.6875
0
LINE
8
back_outsideCutPath
10
3
20
172.6875
11
0
21
172.6875
0
LINE
8
back_outsideCutPath
10
0
20
172.6875
11
0
21
158.0625
0
LINE
8
back_outsideCutPath
10
0
20
158.0625
11
3
21
158.0625
0
LINE
8
back_outsideCutPath
10
3
20
158.0625
11
3
21
143.4375
0
LINE
8
back_outsideCutPath
10
3
20
143.4375
11
0
21
143.4375
0
LINE
8
back_outsideCutPath
10
0
20
143.4375
11
0
21
128.8125
0
LINE
8
back_outsideCutPath
10
0
20
128.8125
11
0
21
122
0
LINE
8
back_outsideCutPath
10
0
20
122
11
16.0625
21
122
0
LINE
8
back_outsideCutPath
10
16.0625
20
122
11
16.0625
21
125
0
LINE
8
back_outsideCutPath
10
16.0625
20
125
11
30.6875
21
125
0
LINE
8
back_outsideCutPath
10
30.6875
20
125
11
30.6875
21
122
0
LINE
8
back_outsideCutPath
10
30.6875
20
122
11
45.3125
21
122
0
LINE
8
back_outsideCutPath
10
45.3125
20
122
11
45.3125
21
125
0
LINE
8
back_outsideCutPath
10
45.3125
20
125
11
59.9375
21
125
0
LINE
8
back_outsideCutPath
10
59.9375
20
125
11
59.9375
21
122
0
LINE
8
back_outsideCutPath
10
59.9375
20
122
11
76
21
122
0
LINE
8
back_outsideCutPath
10
76
20
122
11
76
21
143.4375
0
LINE
8
back_outsideCutPath
10
76
20
143.4375
11
73
21
143.4375
0
LINE
8
back_outsideCutPath
10
73
20
143.4375
11
73
21
158.0625
0
LINE
8
back_outsideCutPath
10
73
20
158.0625
11
76
21
158.0625
0
LINE
8
back_outsideCutPath
10
76
20
158.0625
11
76
21
172.6875
0
LINE
8
back_outsideCutPath
10
76
20
172.6875
11
73
21
172.6875
0
LINE
8
back_outsideCutPath
10
73
20
172.6875
11
73
21
187.3125
0
LINE
8
back_outsideCutPath
10
73
20
187.3125
11
76
21
187.3125
0
LINE
8
back_outsideCutPath
10
76
20
187.3125
11
76
21
201.9375
0
LINE
8
back_outsideCutPath
10
76
20
201.9375
11
73
21
201.9375
0
LINE
8
back_outsideCutPath
10
73
20
201.9375
11
73
21
216.5625
0
LINE
8
back_outsideCutPath
10
73
20
216.5625
11
76
21
216.5625
0
LINE
8
back_outsideCutPath
10
76
20
216.5625
11
76
21
231.1875
0
LINE
8
back_outsideCutPath
10
76
20
231.1875
11
76
21
238
0
LINE
8
back_outsideCutPath
10
76
20
238
11
59.9375
21
238
0
LINE
8
back_outsideCutPath
10
59.9375
20
238
11
59.9375
21
235
0
LINE
8
back_outsideCutPath
10
59.9375
20
235
11
45.3125
21
235
0
LINE
8
back_outsideCutPath
10
45.3125
20
235
11
45.3125
21
238
0
LINE
8
back_outsideCutPath
10
45.3125
20
238
11
30.6875
21
238
0
LINE
8
back_outsideCutPath
10
30.6875
20
238
11
30.6875
21
235
0
LINE
8
back_outsideCutPath
10
30.6875
20
235
11
16.0625
21
235
0
LINE
8
back_outsideCutPath
10
16.0625
20
235
11
16.0625
21
238
0
LINE
8
back_outsideCutPath
10
16.0625
20
238
11
0
21
238
0
LINE
8
right_outsideCutPath
10
82
20
238
11
82
21
216.5625
0
LINE
8
right_outsideCutPath
10
82
20
216.5625
11
79
21
216.5625
0
LINE
8
right_outsideCutPath
10
79
20
216.5625
11
79
21
201.9375
0
LINE
8
right_outsideCutPath
10
79
20
201.9375
11
82
21
201.9375
0
LINE
8
right_outsideCutPath
10
82
20
201.9375
11
82
21
187.3125
0
LINE
8
right_outsideCutPath
10
82
20
187.3125
11
79
21
187.3125
0
LINE
8
right_outsideCutPath
10
79
20
187.3125
11
79
21
172.6875
0
LINE
8
right_outsideCutPath
10
79
20
172.6875
11
82
21
172.6875
0
LINE
8
right_outsideCutPath
10
82
20
172.6875
11
82
21
158.0625
0
LINE
8
right_outsideCutPath
10
82
20
158.0625
11
79
21
158.0625
0
LINE
8
right_outsideCutPath
10
79
20
158.0625
11
79
21
143.4375
0
LINE
8
right_outsideCutPath
10
79
20
143.4375
11
82
21
143.4375
0
LINE
8
right_outsideCutPath
10
82
20
143.4375
11
82
21
128.8125
0
LINE
8
right_outsideCutPath
10
82
20
128.8125
11
82
21
122
0
LINE
8
right_outsideCutPath
10
82
20
122
11
89.6875
21
122
0
LINE
8
right_outsideCutPath
10
89.6875
20
122
11
89.6875
21
125
0
LINE
8
right_outsideCutPath
10
89.6875
20
125
11
104.3125
21
125
0
LINE
8
right_outsideCutPath
10
104.3125
20
125
11
104.3125
21
122
0
LINE
8
right_outsideCutPath
10
104.3125
20
122
11
112
21
122
0
LINE
8
right_outsideCutPath
10
112
20
122
11
112
21
143.4375
0
LINE
8
right_outsideCutPath
10
112
20
143.4375
11
115
21
143.4375
0
LINE
8
right_outsideCutPath
10
115
20
143.4375
11
115
21
158.0625
0
LINE
8
right_outsideCutPath
10
115
20
158.0625
11
112
21
158.0625
0
LINE
8
right_outsideCutPath
10
112
20
158.0625
11
112
21
172.6875
0
LINE
8
right_outsideCutPath
10
112
20
172.6875
11
115
21
172.6875
0
LINE
8
right_outsideCutPath
10
115
20
172.6875
11
115
21
187.3125
0
LINE
8
right_outsideCutPath
10
115
20
187.3125
11
112
21
187.3125
0
LINE
8
right_outsideCutPath
10
112
20
187.3125
11
112
21
201.9375
0
LINE
8
right_outsideCutPath
10
112
20
201.9375
11
115
21
201.9375
0
LINE
8
right_outsideCutPath
10
115
20
201.9375
11
115
21
216.5625
0
LINE
8
right_outsideCutPath
10
115
20
216.5625
11
112
21
216.5625
0
LINE
8
right_outsideCutPath
10
112
20
216.5625
11
112
21
231.1875
0
LINE
8
right_outsideCutPath
10
112
20
231.1875
11
112
21
238
0
LINE
8
right_outsideCutPath
10
112
20
238
11
104.3125
21
238
0
LINE
8
right_outsideCutPath
10
104.3125
20
238
11
104.3125
21
235
0
LINE
8
right_outsideCutPath
10
104.3125
20
235
11
89.6875
21
235
0
LINE
8
right_outsideCutPath
10
89.6875
20
235
11
89.6875
21
238
0
LINE
8
right_outsideCutPath
10
89.6875
20
238
11
82
21
238
0
LINE
8
bottom_outsideCutPath
10
121
20
75
11
121
21
67.3125
0
LINE
8
bottom_outsideCutPath
10
121
20
67.3125
11
118
21
67.3125
0
LINE
8
bottom_outsideCutPath
10
118
20
67.3125
11
118
21
52.6875
0
LINE
8
bottom_outsideCutPath
10
118
20
52.6875
11
121
21
52.6875
0
LINE
8
bottom_outsideCutPath
10
121
20
52.6875
11
121
21
45
0
LINE
8
bottom_outsideCutPath
10
121
20
45
11
134.0625
21
45
0
LINE
8
bottom_outsideCutPath
10
134.0625
20
45
11
134.0625
21
42
0
LINE
8
bottom_outsideCutPath
10
134.0625
20
42
11
148.6875
21
42
0
LINE
8
bottom_outsideCutPath
10
148.6875
20
42
11
148.6875
21
45
0
LINE
8
bottom_outsideCutPath
10
148.6875
20
45
11
163.3125
21
45
0
LINE
8
bottom_outsideCutPath
10
163.3125
20
45
11
163.3125
21
42
0
LINE
8
bottom_outsideCutPath
10
163.3125
20
42
11
177.9375
21
42
0
LINE
8
bottom_outsideCutPath
10
177.9375
20
42
11
177.9375
21
45
0
LINE
8
bottom_outsideCutPath
10
177.9375
20
45
11
191
21
45
0
LINE
8
bottom_outsideCutPath
10
191
20
45
11
191
21
52.6875
0
LINE
8
bottom_outsideCutPath
10
191
20
52.6875
11
194
21
52.6875
0
LINE
8
bottom_outsideCutPath
10
194
20
52.6875
11
194
21
67.3125
0
LINE
8
bottom_outsideCutPath
10
194
20
67.3125
11
191
21
67.3125
0
LINE
8
bottom_outsideCutPath
10
191
20
67.3125
11
191
21
75
0
LINE
8
bottom_outsideCutPath
10
191
20
75
11
177.9375
21
75
0
LINE
8
bottom_outsideCutPath
10
177.9375
20
75
11
177.9375
21
78
0
LINE
8
bottom_outsideCutPath
10
177.9375
20
78
11
163.3125
21
78
0
LINE
8
bottom_outsideCutPath
10
163.3125
20
78
11
163.3125
21
75
0
LINE
8
bottom_outsideCutPath
10
163.3125
20
75
11
148.6875
21
75
0
LINE
8
bottom_outsideCutPath
10
148.6875
20
75
11
148.6875
21
78
0
LINE
8
bottom_outsideCutPath
10
148.6875
20
78
11
134.0625
21
78
0
LINE
8
bottom_outsideCutPath
10
134.0625
20
78
11
134.0625
21
75
0
LINE
8
bottom_outsideCutPath
10
134.0625
20
75
11
121
21
75
0
ENDSEC
0
EOF